<?xml version="1.0" encoding="UTF-8"?>
<svg width="34px" height="36px" viewBox="0 0 34 36" version="1.1" xmlns="http://www.w3.org/2000/svg" xmlns:xlink="http://www.w3.org/1999/xlink">
    <!-- Generator: Sketch 51.1 (57501) - http://www.bohemiancoding.com/sketch -->
    <title>icon_ig_s</title>
    <desc>Created with Sketch.</desc>
    <defs></defs>
    <g id="Page-1" stroke="none" stroke-width="1" fill="none" fill-rule="evenodd">
        <g id="tour" transform="translate(-704.000000, -2281.000000)" fill="#FFEC00">
            <path d="M731.605093,2303.29308 C731.591597,2305.48496 730.713559,2307.24559 729.040164,2308.5647 C728.193934,2309.23172 727.231609,2309.62317 726.181135,2309.76842 C725.908406,2309.80613 725.631213,2309.82337 725.356027,2309.82368 C722.34212,2309.8275 719.328213,2309.83065 716.314307,2309.8241 C714.883638,2309.82101 713.597963,2309.35236 712.475192,2308.42752 C711.27586,2307.43961 710.519537,2306.15654 710.204013,2304.59423 C710.116666,2304.16182 710.07984,2303.72329 710.080041,2303.28109 C710.080794,2301.71647 710.080342,2300.15185 710.080342,2298.58723 C710.080342,2297.01674 710.072014,2295.4462 710.082499,2293.87587 C710.094992,2292.00006 710.761259,2290.4104 712.060481,2289.11748 C712.941378,2288.24083 713.991452,2287.69576 715.185867,2287.45658 C715.574088,2287.3789 715.967175,2287.34732 716.362822,2287.34747 C719.376728,2287.34852 722.390685,2287.33867 725.404542,2287.35235 C727.071163,2287.35984 728.510863,2287.99077 729.709693,2289.19762 C730.686868,2290.18134 731.291325,2291.38118 731.518247,2292.77886 C731.576947,2293.14065 731.605344,2293.51203 731.606146,2293.87902 C731.612869,2297.01706 731.624358,2300.1552 731.605093,2303.29308 M720.843972,2281 C711.541314,2281 704,2288.87354 704,2298.58602 C704,2308.2985 711.541314,2316.17199 720.843972,2316.17199 C730.146629,2316.17199 737.687943,2308.2985 737.687943,2298.58602 C737.687943,2288.87354 730.146629,2281 720.843972,2281 M724.985466,2298.59671 C724.981402,2300.98633 723.133864,2302.91033 720.843821,2302.90976 C718.550266,2302.90908 716.704635,2300.98062 716.704786,2298.5855 C716.704886,2296.17817 718.57209,2294.24767 720.887721,2294.26224 C723.148815,2294.27643 724.989479,2296.2128 724.985466,2298.59671 M727.466509,2292.53508 C727.012664,2292.53387 726.6413,2292.144 726.641802,2291.66938 C726.642304,2291.18999 727.015524,2290.80436 727.476693,2290.80671 C727.930939,2290.80907 728.299744,2291.19952 728.297487,2291.67571 C728.295229,2292.1494 727.921106,2292.53644 727.466509,2292.53508 M720.914361,2304.63671 C717.709204,2304.67081 715.076545,2301.97382 715.047847,2298.65469 C715.019099,2295.32945 717.568977,2292.6015 720.72597,2292.53644 C723.971816,2292.46944 726.59705,2295.19231 726.6411,2298.50122 C726.682591,2301.85921 724.093831,2304.60297 720.914361,2304.63671 M729.856141,2292.87817 C729.433804,2290.69771 727.549591,2289.08018 725.419593,2289.0783 C722.372574,2289.07558 719.325554,2289.07558 716.278485,2289.07898 C715.482225,2289.07987 714.728109,2289.28007 714.045385,2289.70839 C712.544779,2290.64968 711.765878,2292.04605 711.740893,2293.87304 C711.71947,2295.44327 711.736478,2297.01397 711.736478,2298.5844 L711.736729,2298.5844 C711.736729,2300.17505 711.735525,2301.76571 711.737481,2303.35631 C711.738033,2303.83161 711.810078,2304.29665 711.947797,2304.74995 C712.555666,2306.75054 714.312294,2308.09558 716.32399,2308.09663 C719.296505,2308.09809 722.269021,2308.09726 725.241537,2308.09637 C725.395962,2308.09631 725.550689,2308.09238 725.704663,2308.08128 C726.488079,2308.02476 727.216458,2307.7815 727.86647,2307.32312 C729.235077,2306.35789 729.942485,2305.00196 729.95001,2303.27873 C729.963657,2300.14933 729.953773,2297.01988 729.954024,2293.89049 C729.954074,2293.54949 729.920911,2293.21247 729.856141,2292.87817" id="icon_ig_s"></path>
        </g>
    </g>
</svg>