<?xml version="1.0" encoding="UTF-8"?>
<svg width="34px" height="37px" viewBox="0 0 34 37" version="1.1" xmlns="http://www.w3.org/2000/svg" xmlns:xlink="http://www.w3.org/1999/xlink">
    <!-- Generator: Sketch 51.1 (57501) - http://www.bohemiancoding.com/sketch -->
    <title>icon_bc_s</title>
    <desc>Created with Sketch.</desc>
    <defs></defs>
    <g id="Page-1" stroke="none" stroke-width="1" fill="none" fill-rule="evenodd">
        <g id="tour" transform="translate(-529.000000, -2279.000000)" fill="#FFEC00">
            <path d="M540.137569,2297.32834 C539.565252,2298.67865 539.531534,2300.04273 540.122485,2301.40773 C540.551945,2302.3998 541.280429,2303.00698 542.306164,2303.16038 C543.354969,2303.31837 544.209452,2302.89491 544.828797,2302.01399 C545.794195,2300.63889 545.772012,2298.17527 544.766685,2296.82588 C544.24317,2296.12501 543.581234,2295.62438 542.540415,2295.65745 C541.497821,2295.65378 540.606958,2296.22146 540.137569,2297.32834 M559.414462,2297.68107 C559.437532,2296.57143 559.056874,2295.70889 558.398487,2294.95107 C556.799548,2293.11208 553.115421,2293.2416 551.621184,2294.15558 C550.090568,2295.09253 549.342563,2296.51816 549.112748,2298.25886 C548.846554,2300.27421 549.05596,2302.2069 550.464127,2303.79236 C552.138488,2305.68003 555.576829,2305.87201 557.537793,2304.44546 C558.73123,2303.57833 559.324843,2302.31161 559.423335,2300.70502 C558.753413,2300.70502 558.142054,2300.73442 557.534244,2300.69492 C557.054207,2300.66369 556.850125,2300.82628 556.720577,2301.32782 C556.430425,2302.45216 555.651364,2303.12088 554.546658,2303.21917 C553.545768,2303.30919 552.703707,2302.83704 552.216572,2301.9203 C551.353216,2300.29718 551.355878,2298.61251 552.19084,2296.98112 C552.715242,2295.95874 553.636274,2295.54906 554.735656,2295.64184 C555.757841,2295.72818 556.465918,2296.26555 556.794224,2297.30905 C556.841252,2297.4597 557.039123,2297.65719 557.175769,2297.66362 C557.903366,2297.69853 558.634513,2297.68107 559.414462,2297.68107 M543.683275,2279 L546.540425,2279 C547.355867,2279.14881 548.180181,2279.25812 548.985862,2279.45194 C558.302657,2281.70061 564.12876,2290.56487 562.742776,2300.36607 C561.533367,2308.91434 554.272478,2315.72833 545.925517,2315.9295 C538.369153,2316.11046 532.771977,2312.6263 529.140201,2305.75811 C528.947654,2305.3916 528.953866,2305.11511 529.156173,2304.74859 C531.289276,2300.88323 533.403744,2297.00684 535.523537,2293.13504 C536.082545,2292.1145 536.641553,2291.09489 537.255574,2289.97147 L537.255574,2303.58568 C537.255574,2305.0012 537.255574,2305.0012 538.643332,2305.0012 C539.569688,2305.0012 539.569688,2305.00028 539.661081,2304.04497 C539.662856,2304.02476 539.71787,2304.00822 539.751587,2303.98985 C540.464988,2304.93966 541.489835,2305.21156 542.56526,2305.34383 C544.675292,2305.60195 546.581242,2304.83219 547.544865,2302.66894 C548.301743,2300.96866 548.307955,2299.18386 547.929072,2297.4303 C547.094997,2293.56861 543.305279,2292.75659 540.882025,2294.03708 C540.507579,2294.23458 540.183709,2294.53128 539.7507,2294.84451 L539.7507,2289.58107 L529.000893,2289.58107 C529.094061,2289.35878 529.146413,2289.20997 529.217398,2289.07035 C531.596286,2284.40949 535.21209,2281.27807 540.088767,2279.76242 C541.255584,2279.39958 542.483627,2279.24802 543.683275,2279" id="icon_bc_s"></path>
        </g>
    </g>
</svg>