<?xml version="1.0" encoding="UTF-8"?>
<svg width="34px" height="36px" viewBox="0 0 34 36" version="1.1" xmlns="http://www.w3.org/2000/svg" xmlns:xlink="http://www.w3.org/1999/xlink">
    <!-- Generator: Sketch 51.1 (57501) - http://www.bohemiancoding.com/sketch -->
    <title>icon_fb_s</title>
    <desc>Created with Sketch.</desc>
    <defs></defs>
    <g id="Page-1" stroke="none" stroke-width="1" fill="none" fill-rule="evenodd">
        <g id="tour" transform="translate(-762.000000, -2281.000000)" fill="#FFEC00">
            <path d="M784.242441,2291.30244 L781.915394,2291.30244 C781.124274,2291.30244 780.658899,2291.98245 780.658899,2293.10016 L780.658899,2294.94642 L784.242441,2294.94642 L783.823552,2299.22242 L780.658899,2299.22242 L780.658899,2311.32114 L775.818863,2311.32114 L775.818863,2299.12535 L773.44533,2299.12535 L773.44533,2294.99513 L775.958492,2294.99513 L775.958492,2291.98245 C775.958492,2289.50454 777.07553,2286.92938 780.658899,2286.92938 L784.242441,2286.92938 L784.242441,2291.30244 Z M778.843886,2281 C769.541208,2281 762,2288.87342 762,2298.58609 C762,2308.29839 769.541208,2316.17199 778.843886,2316.17199 C788.146563,2316.17199 795.687943,2308.29839 795.687943,2298.58609 C795.687943,2288.87342 788.146563,2281 778.843886,2281 Z" id="icon_fb_s"></path>
        </g>
    </g>
</svg>