<?xml version="1.0" encoding="UTF-8"?>
<svg width="34px" height="42px" viewBox="0 0 34 42" version="1.1" xmlns="http://www.w3.org/2000/svg" xmlns:xlink="http://www.w3.org/1999/xlink">
    <!-- Generator: Sketch 51.1 (57501) - http://www.bohemiancoding.com/sketch -->
    <title>icon_apple_s</title>
    <desc>Created with Sketch.</desc>
    <defs></defs>
    <g id="Page-1" stroke="none" stroke-width="1" fill="none" fill-rule="evenodd">
        <g id="tour" transform="translate(-587.000000, -2274.000000)" fill="#FFEC00">
            <path d="M604.207347,2283.71505 C608.514169,2284.03179 613.306418,2278.3254 612.362333,2274.00423 C607.991605,2273.82078 603.096426,2279.64993 604.207347,2283.71505 M619.877498,2287.96225 C613.591642,2291.79436 613.892136,2301.14044 620.949774,2304.61774 C620.150091,2307.35287 618.754324,2309.75584 617.078045,2312.00288 C616.847868,2312.31162 616.612789,2312.61704 616.368473,2312.91387 C614.077258,2315.70013 611.939116,2316.31976 608.67667,2314.91463 C606.057814,2313.78681 603.541888,2313.80184 600.926426,2314.90858 C597.565386,2316.33069 595.833872,2315.8789 593.409753,2313.04814 C589.488822,2308.46937 587.252465,2303.12674 587.015689,2296.99452 C586.854886,2292.82791 587.908687,2289.04206 591.172264,2286.28722 C593.853707,2284.02379 596.875797,2283.31342 600.248902,2284.47226 C605.131261,2286.14963 603.304924,2286.23297 608.307745,2284.42581 C612.839843,2282.78844 617.731439,2284.73533 619.697089,2287.66171 C619.750627,2287.74134 619.796437,2287.82643 619.877498,2287.96225" id="icon_apple_s"></path>
        </g>
    </g>
</svg>