<?xml version="1.0" encoding="UTF-8"?>
<svg width="34px" height="36px" viewBox="0 0 34 36" version="1.1" xmlns="http://www.w3.org/2000/svg" xmlns:xlink="http://www.w3.org/1999/xlink">
    <!-- Generator: Sketch 51.1 (57501) - http://www.bohemiancoding.com/sketch -->
    <title>icon_link_s</title>
    <desc>Created with Sketch.</desc>
    <defs></defs>
    <g id="Page-1" stroke="none" stroke-width="1" fill="none" fill-rule="evenodd">
        <g id="tour" transform="translate(-646.000000, -2281.000000)" fill="#FFEC00">
            <path d="M659.550788,2298.586 C659.550788,2298.89801 659.513956,2299.20112 659.446281,2299.49125 L664.529117,2302.60936 C665.18985,2301.91655 666.104366,2301.48761 667.114854,2301.48761 C669.130142,2301.48761 670.763932,2303.19337 670.763932,2305.29744 C670.763932,2307.40166 669.130142,2309.10727 667.114854,2309.10727 C665.099567,2309.10727 663.465626,2307.40166 663.465626,2305.29744 C663.465626,2305.03779 663.49078,2304.78455 663.538093,2304.53976 L658.383688,2301.37772 C657.732388,2302.00909 656.860544,2302.39583 655.90171,2302.39583 C653.886273,2302.39583 652.252632,2300.69006 652.252632,2298.586 C652.252632,2296.48177 653.886273,2294.77617 655.90171,2294.77617 C656.866682,2294.77617 657.743467,2295.1679 658.396115,2295.80647 L663.566391,2292.6685 C663.501261,2292.38338 663.465626,2292.08637 663.465626,2291.78061 C663.465626,2289.67638 665.099567,2287.97078 667.114854,2287.97078 C669.130142,2287.97078 670.763932,2289.67638 670.763932,2291.78061 C670.763932,2293.88467 669.130142,2295.59044 667.114854,2295.59044 C666.149882,2295.59044 665.273097,2295.1987 664.620449,2294.56013 L659.450173,2297.6981 C659.515303,2297.98323 659.550788,2298.28008 659.550788,2298.586 M662.843972,2281 C653.541158,2281 646,2288.87352 646,2298.586 C646,2308.29847 653.541158,2316.17199 662.843972,2316.17199 C672.146485,2316.17199 679.687943,2308.29847 679.687943,2298.586 C679.687943,2288.87352 672.146485,2281 662.843972,2281" id="icon_link_s"></path>
        </g>
    </g>
</svg>