<?xml version="1.0" encoding="UTF-8"?>
<svg width="34px" height="36px" viewBox="0 0 34 36" version="1.1" xmlns="http://www.w3.org/2000/svg" xmlns:xlink="http://www.w3.org/1999/xlink">
    <!-- Generator: Sketch 51.1 (57501) - http://www.bohemiancoding.com/sketch -->
    <title>icon_email_s</title>
    <desc>Created with Sketch.</desc>
    <defs></defs>
    <g id="Page-1" stroke="none" stroke-width="1" fill="none" fill-rule="evenodd">
        <g id="tour" transform="translate(-879.000000, -2281.000000)" fill="#FFEC00">
            <path d="M906.108886,2304.13832 C906.108886,2304.84661 905.558918,2305.42081 904.880453,2305.42081 L886.807429,2305.42081 C886.129025,2305.42081 885.579057,2304.84661 885.579057,2304.13832 L885.579057,2294.15478 L895.843972,2301.0033 L906.108886,2294.15478 L906.108886,2304.13832 Z M886.807429,2292.45042 L904.880453,2292.45042 C904.97712,2292.45042 905.070753,2292.46329 905.160979,2292.48534 L895.843972,2298.70147 L886.526902,2292.48534 C886.617191,2292.46329 886.710761,2292.45042 886.807429,2292.45042 Z M895.843972,2281 C886.541331,2281 879,2288.87348 879,2298.586 C879,2308.29845 886.541331,2316.17199 895.843972,2316.17199 C905.146612,2316.17199 912.687943,2308.29845 912.687943,2298.586 C912.687943,2288.87348 905.146612,2281 895.843972,2281 Z" id="icon_email_s"></path>
        </g>
    </g>
</svg>