<?xml version="1.0" encoding="UTF-8"?>
<svg width="34px" height="36px" viewBox="0 0 34 36" version="1.1" xmlns="http://www.w3.org/2000/svg" xmlns:xlink="http://www.w3.org/1999/xlink">
    <!-- Generator: Sketch 51.1 (57501) - http://www.bohemiancoding.com/sketch -->
    <title>icon_shopee_s</title>
    <desc>Created with Sketch.</desc>
    <defs></defs>
    <g id="Page-1" stroke="none" stroke-width="1" fill="none" fill-rule="evenodd">
        <g id="tour" transform="translate(-936.000000, -2281.000000)" fill="#FFEC00">
            <path d="M949.958512,2303.39643 L951.590429,2302.41564 C951.857035,2303.07682 952.315631,2303.44046 953.062354,2303.44046 C953.734319,2303.44046 953.936928,2303.18696 953.936928,2302.92264 C953.936928,2302.48176 953.446334,2302.34952 952.497002,2302.07408 C951.323823,2301.72141 950.278496,2301.10426 950.278496,2299.66079 C950.278496,2298.21733 951.419818,2297.26945 952.870363,2297.26945 C954.107539,2297.26945 955.120868,2297.87562 955.643461,2299.03268 L954.043684,2300.00235 C953.808935,2299.42938 953.424954,2299.14282 952.880982,2299.14282 C952.411767,2299.14282 952.187779,2299.37424 952.187779,2299.64982 C952.187779,2299.99138 952.454385,2300.17876 953.467713,2300.48726 C954.619513,2300.83979 955.84607,2301.28067 955.84607,2302.90041 C955.84607,2304.43223 954.69427,2305.31369 953.008976,2305.31369 C951.38782,2305.31369 950.353111,2304.5314 949.958512,2303.39643 M954.65321,2289.62088 C953.816439,2288.44364 952.301897,2288.26693 951.321133,2289.26601 C950.213083,2290.39454 950.001271,2291.86785 949.908107,2293.40889 L955.795524,2293.40889 C955.673618,2291.99657 955.431932,2290.71635 954.65321,2289.62088 M948.509666,2293.44238 C947.225483,2293.44238 945.860031,2293.43127 944.494862,2293.44648 C943.665453,2293.45569 943.337257,2293.81056 943.371096,2294.66819 C943.405501,2295.54439 943.480117,2296.41899 943.542273,2297.29373 C943.7715,2300.52515 943.987702,2303.75745 944.239866,2306.98682 C944.361488,2308.54526 945.256168,2309.37349 946.738004,2309.37495 C950.79585,2309.3789 954.853554,2309.37861 958.9114,2309.37524 C960.258446,2309.37407 961.108244,2308.69593 961.395663,2307.3648 C961.492649,2306.91617 961.517143,2306.44822 961.550274,2305.9873 C961.812774,2302.34338 962.058142,2298.69799 962.333526,2295.05495 C962.428389,2293.80164 962.159093,2293.44458 960.966092,2293.44165 C959.672282,2293.43873 958.378472,2293.44092 957.070503,2293.44092 C957.002117,2292.96259 956.957376,2292.55331 956.883043,2292.14973 C956.632862,2290.78905 956.193663,2289.51 955.240933,2288.49161 C953.884117,2287.04142 951.782985,2286.99549 950.446133,2288.43954 C949.985413,2288.93718 949.584018,2289.56207 949.354791,2290.20467 C948.992048,2291.22189 948.797085,2292.30303 948.509666,2293.44238 M952.868664,2316.17013 C944.263652,2316.30485 936.00595,2309.11414 936.000003,2298.60335 C935.994198,2288.50302 943.707362,2280.99459 952.85224,2281 C962.283263,2281.00542 969.848187,2288.96614 969.685363,2298.91331 C969.521973,2308.89735 961.624607,2316.26799 952.868664,2316.17013" id="icon_shopee_s"></path>
        </g>
    </g>
</svg>