<?xml version="1.0" encoding="UTF-8"?>
<svg width="34px" height="36px" viewBox="0 0 34 36" version="1.1" xmlns="http://www.w3.org/2000/svg" xmlns:xlink="http://www.w3.org/1999/xlink">
    <!-- Generator: Sketch 51.1 (57501) - http://www.bohemiancoding.com/sketch -->
    <title>icon_spotify_s</title>
    <desc>Created with Sketch.</desc>
    <defs></defs>
    <g id="Page-1" stroke="none" stroke-width="1" fill="none" fill-rule="evenodd">
        <g id="tour" transform="translate(-470.000000, -2281.000000)" fill="#FFEC00">
            <path d="M484.570577,2302.06413 C482.443931,2302.07178 480.587043,2302.29079 478.744935,2302.67621 C478.451158,2302.73742 478.152763,2302.78906 477.866377,2302.87801 C477.314853,2303.04824 477.008143,2303.58668 477.115307,2304.15668 C477.218775,2304.71616 477.713022,2305.07767 478.294108,2305.01741 C478.381871,2305.00785 478.468711,2304.98872 478.553703,2304.96673 C479.923736,2304.63104 481.313169,2304.42159 482.714612,2304.31065 C484.441242,2304.17294 486.160481,2304.24753 487.864015,2304.57653 C489.729218,2304.93612 491.495572,2305.57689 493.127971,2306.59256 C493.225897,2306.65377 493.326594,2306.71402 493.430062,2306.76184 C493.906756,2306.98085 494.453661,2306.81348 494.739123,2306.36781 C495.029204,2305.91162 494.955298,2305.31102 494.558977,2304.94664 C494.466594,2304.86248 494.361278,2304.79267 494.255038,2304.72668 C493.589884,2304.3097 492.897015,2303.94628 492.180127,2303.63067 C489.670093,2302.52415 487.039039,2302.06796 484.570577,2302.06413 M483.942376,2296.32589 C483.643981,2296.33832 483.140496,2296.35363 482.637935,2296.38041 C481.017545,2296.46457 479.423946,2296.72853 477.858062,2297.1675 C477.594772,2297.24114 477.325015,2297.31669 477.085744,2297.44772 C476.608127,2297.70881 476.356846,2298.14396 476.391028,2298.70631 C476.426133,2299.2983 476.731919,2299.71432 477.27051,2299.93142 C477.570753,2300.05192 477.874691,2300.0261 478.179554,2299.93142 C479.942212,2299.37959 481.751062,2299.13189 483.587627,2299.08599 C485.253284,2299.04582 486.906008,2299.19023 488.54395,2299.51731 C490.78977,2299.96585 492.927501,2300.72234 494.903564,2301.93215 C494.979317,2301.97806 495.056919,2302.02397 495.136368,2302.06318 C495.640776,2302.31279 496.123013,2302.25541 496.548897,2301.89007 C496.976628,2301.5257 497.108735,2301.04273 496.982171,2300.48325 C496.890712,2300.08157 496.644051,2299.81187 496.313321,2299.60434 C495.563175,2299.13476 494.786238,2298.72161 493.981586,2298.36488 C490.841504,2296.97144 487.551762,2296.35745 483.942376,2296.32589 M484.931793,2290.29022 C482.231452,2290.29117 479.990251,2290.48436 477.783233,2291.00941 C477.30192,2291.12513 476.820607,2291.24755 476.349456,2291.39961 C475.674139,2291.6148 475.220541,2292.29286 475.241789,2293.00154 C475.265809,2293.74368 475.734188,2294.36054 476.415971,2294.55278 C476.742081,2294.64267 477.063573,2294.61016 477.382292,2294.51261 C478.948176,2294.03442 480.551937,2293.77811 482.176946,2293.65665 C483.818584,2293.53424 485.461145,2293.54476 487.102783,2293.68439 C488.770287,2293.82784 490.416544,2294.09276 492.037858,2294.52217 C493.755249,2294.97741 495.413515,2295.5914 496.946142,2296.53247 C497.053305,2296.5975 497.164164,2296.65967 497.280566,2296.69983 C497.883824,2296.9045 498.439967,2296.80217 498.908347,2296.35554 C499.378574,2295.90796 499.511605,2295.33891 499.349011,2294.70293 C499.223371,2294.21039 498.898185,2293.89001 498.483387,2293.64422 C496.949837,2292.73471 495.321133,2292.06333 493.626837,2291.55933 C490.641034,2290.67277 487.589639,2290.30169 484.931793,2290.29022 M503.947814,2298.57337 C503.947814,2308.26909 496.340112,2316.14386 486.974371,2316.14386 C477.590153,2316.14291 469.993537,2308.26717 470.000004,2298.54946 C470.005547,2288.84705 477.606782,2280.99235 486.982685,2281.00001 C496.360436,2281.0067 503.947814,2288.86713 503.947814,2298.57337" id="icon_spotify_s"></path>
        </g>
    </g>
</svg>