<?xml version="1.0" encoding="UTF-8"?>
<svg width="34px" height="36px" viewBox="0 0 34 36" version="1.1" xmlns="http://www.w3.org/2000/svg" xmlns:xlink="http://www.w3.org/1999/xlink">
    <!-- Generator: Sketch 51.1 (57501) - http://www.bohemiancoding.com/sketch -->
    <title>icon_youtube_s</title>
    <desc>Created with Sketch.</desc>
    <defs></defs>
    <g id="Page-1" stroke="none" stroke-width="1" fill="none" fill-rule="evenodd">
        <g id="tour" transform="translate(-820.000000, -2281.000000)" fill="#FFEC00">
            <path d="M840.053965,2298.72122 C838.377008,2297.81867 836.70287,2296.91807 835.028731,2296.01942 C835.004305,2296.0058 834.976121,2295.9951 834.949816,2295.98538 C834.946058,2295.98343 834.941361,2295.98538 834.936663,2295.98732 C834.932905,2295.98927 834.929147,2295.99316 834.922571,2295.99705 C834.912237,2297.85369 834.901903,2299.71324 834.891569,2301.57474 C835.038126,2301.53292 839.967534,2298.80681 840.053965,2298.72122 M836.974377,2305.91436 L838.771587,2305.91436 C840.305744,2305.91436 841.838962,2305.92214 843.372179,2305.90949 C844.385869,2305.90074 845.231394,2305.47864 845.901237,2304.69572 C846.481831,2304.01687 846.752398,2303.21158 846.756156,2302.30806 C846.758975,2301.76342 846.757096,2301.21684 846.757096,2300.6722 C846.757096,2298.88558 846.758975,2297.09994 846.756156,2295.31333 C846.753338,2294.12193 846.309907,2293.14547 845.400499,2292.40923 C844.778568,2291.90544 844.061751,2291.673 843.273535,2291.67202 C839.071278,2291.67105 834.868082,2291.67202 830.664886,2291.673 C830.55027,2291.673 830.435654,2291.68175 830.321039,2291.69148 C829.596706,2291.75761 828.954108,2292.03382 828.406396,2292.52497 C827.586237,2293.25926 827.18978,2294.19585 827.191659,2295.31917 C827.194477,2297.63583 827.191659,2299.95249 827.194477,2302.26916 C827.194477,2302.45784 827.199175,2302.64749 827.226419,2302.83325 C827.40304,2304.05091 828.02497,2304.94762 829.071542,2305.52533 C829.576038,2305.80348 830.119992,2305.9163 830.69213,2305.91533 C832.786213,2305.91241 834.880295,2305.91436 836.974377,2305.91436 M836.976256,2316.14386 C827.66985,2316.15164 820.006579,2308.34773 820.000003,2298.57922 C819.994366,2288.87296 827.585297,2280.99708 836.975317,2281 C846.387883,2281.00195 853.941236,2288.90409 853.944993,2298.57144 C853.948751,2308.26506 846.346547,2316.13705 836.976256,2316.14386" id="icon_youtube_s"></path>
        </g>
    </g>
</svg>